<?xml version="1.0" encoding="UTF-8" standalone="no"?>
<!-- Generator: Adobe Illustrator 19.0.0, SVG Export Plug-In . SVG Version: 6.00 Build 0)  -->

<svg
   xmlns:dc="http://purl.org/dc/elements/1.1/"
   xmlns:cc="http://creativecommons.org/ns#"
   xmlns:rdf="http://www.w3.org/1999/02/22-rdf-syntax-ns#"
   xmlns:svg="http://www.w3.org/2000/svg"
   xmlns="http://www.w3.org/2000/svg"
   xmlns:sodipodi="http://sodipodi.sourceforge.net/DTD/sodipodi-0.dtd"
   xmlns:inkscape="http://www.inkscape.org/namespaces/inkscape"
   version="1.1"
   id="Capa_1"
   x="0px"
   y="0px"
   viewBox="0 0 513.859 513.859"
   style="enable-background:new 0 0 513.859 513.859;"
   xml:space="preserve"
   inkscape:version="0.91 r13725"
   sodipodi:docname="shirt.svg"><metadata
     id="metadata41"><rdf:RDF><cc:Work
         rdf:about=""><dc:format>image/svg+xml</dc:format><dc:type
           rdf:resource="http://purl.org/dc/dcmitype/StillImage" /></cc:Work></rdf:RDF></metadata><defs
     id="defs39" /><sodipodi:namedview
     pagecolor="#ffffff"
     bordercolor="#666666"
     borderopacity="1"
     objecttolerance="10"
     gridtolerance="10"
     guidetolerance="10"
     inkscape:pageopacity="0"
     inkscape:pageshadow="2"
     inkscape:window-width="1330"
     inkscape:window-height="690"
     id="namedview37"
     showgrid="false"
     inkscape:zoom="0.45926995"
     inkscape:cx="296.12214"
     inkscape:cy="256.9295"
     inkscape:window-x="0"
     inkscape:window-y="27"
     inkscape:window-maximized="0"
     inkscape:current-layer="text3369" /><g
     id="g3"
     style="fill:#999999;fill-opacity:1"><path
       d="M41.011,262.031c1.457,4.662,4.954,8.159,9.324,10.199s9.324,2.04,13.695,0.291l45.165-18.357v189.985   c0,9.616,7.867,17.483,17.483,17.483h259.335c9.616,0,17.483-7.867,17.483-17.483v-191.15l46.331,16.609   c9.033,3.205,18.94-1.457,22.437-10.49l40.503-112.184c3.205-8.742-0.874-18.357-9.324-21.854l-162.303-71.39   c-8.159-3.497-17.775-0.583-22.146,7.285c-0.291,0.291-25.642,42.543-62.066,42.543h-1.166c-36.423,0-60.609-41.96-60.9-42.251   c-4.371-7.867-13.987-11.073-22.437-7.576l-162.012,71.39c-8.45,3.788-12.53,13.112-9.324,21.854L41.011,262.031z M173.301,91.278   c13.404,17.775,41.668,46.913,82.463,46.913h1.166c40.503,0,69.642-29.139,83.337-46.913l134.038,58.86l-29.139,80.714   l-53.324-18.94c-5.245-2.04-11.364-1.166-16.026,2.04c-4.662,3.205-7.285,8.742-7.285,14.278v198.435H144.162V228.23   c0-5.828-2.914-11.364-7.576-14.569c-4.954-3.205-11.073-3.788-16.318-1.748l-52.158,20.98L39.263,150.43L173.301,91.278z"
       id="path5"
       style="fill:#999999;fill-opacity:1" /></g><g
     id="g7" /><g
     id="g9" /><g
     id="g11" /><g
     id="g13" /><g
     id="g15" /><g
     id="g17" /><g
     id="g19" /><g
     id="g21" /><g
     id="g23" /><g
     id="g25" /><g
     id="g27" /><g
     id="g29" /><g
     id="g31" /><g
     id="g33" /><g
     id="g35" /><g
     transform="scale(1.0037158,0.99629795)"
     style="font-style:normal;font-weight:normal;font-size:118.20075226px;line-height:125%;font-family:Sans;letter-spacing:0px;word-spacing:0px;fill:#000000;fill-opacity:1;stroke:none;stroke-width:1px;stroke-linecap:butt;stroke-linejoin:miter;stroke-opacity:1"
     id="text3369"><path
       d="m 181.54962,192.62733 0,82.74053 33.56902,0 c 25.05856,0 43.14327,-17.49371 43.14327,-41.37026 0,-23.99476 -17.96651,-41.37027 -42.78867,-41.37027 l -33.92362,0 z m 13.94769,12.52928 19.73953,0 c 16.3117,0 28.95918,12.05648 28.95918,28.95919 0,16.7845 -12.29287,28.72278 -28.36818,28.72278 l -20.33053,0 0,-57.68197 z"
       style="font-style:normal;font-variant:normal;font-weight:normal;font-stretch:normal;font-family:Montserrat;-inkscape-font-specification:Montserrat;fill:#999999;fill-opacity:1"
       id="path3374" /><path
       d="m 328.40113,275.36786 16.78451,0 -34.16002,-47.3985 32.03241,-35.34203 -16.42991,0 -39.47905,42.78867 0,-42.78867 -13.94769,0 0,82.74053 13.94769,0 0,-21.03974 14.06589,-15.48429 27.18617,36.52403 z"
       style="font-style:normal;font-variant:normal;font-weight:normal;font-stretch:normal;font-family:Montserrat;-inkscape-font-specification:Montserrat;fill:#999999;fill-opacity:1"
       id="path3376" /></g></svg>